# xmcd
#
# Track frame offsets:
#	150
#	19775
#	38820
#	54999
#	68049
#	82907
#	97262
#	114616
#	133075
#	152774
#	166854
#	183066
#	199558
#	216795
#	231161
#	251797
#	271479
#	291215
#	306839
#	328611
#
# Disc length: 4622 seconds
#
# Revision: 0
# Processed by: cddbd v1.5.1PL2 Copyright (c) Steve Scherf et al.
# Submitted via: dBpowerAMP V4.0
#
DISCID=19120c14
DTITLE=Miscellaneous - Country
DYEAR=1900
DGENRE=Country
TTITLE0=song
TTITLE1=song
TTITLE2=Track03song
TTITLE3=song
TTITLE4=song
TTITLE5=song
TTITLE6=song
TTITLE7=song
TTITLE8=song
TTITLE9=song
TTITLE10=song
TTITLE11=song
TTITLE12=song
TTITLE13=song
TTITLE14=song
TTITLE15=song
TTITLE16=song
TTITLE17=song
TTITLE18=song
TTITLE19=song
EXTD=Keith Urban
EXTT0=
EXTT1=
EXTT2=
EXTT3=
EXTT4=
EXTT5=
EXTT6=
EXTT7=
EXTT8=
EXTT9=
EXTT10=
EXTT11=
EXTT12=
EXTT13=
EXTT14=
EXTT15=
EXTT16=
EXTT17=
EXTT18=
EXTT19=
PLAYORDER=
